<svg xmlns="http://www.w3.org/2000/svg" style="display:none">
  <!-- Solid icons -->
  <symbol id="icon-arrows-rotate" viewBox="0 0 512 512"><path fill="currentColor" d="M105.1 202.6c7.7-21.8 20.2-42.3 37.8-59.8c62.5-62.5 163.8-62.5 226.3 0L386.3 160H352c-17.7 0-32 14.3-32 32s14.3 32 32 32h111.5c0 0 .1 0 .1 0c.4 0 .8 0 1.2 0c17.5-.3 31.6-14.5 31.6-32V80c0-17.7-14.3-32-32-32s-32 14.3-32 32v35.2L414.4 97.6c-87.5-87.5-229.3-87.5-316.8 0C73.2 122 55.6 150.7 44.8 181.4c-5.9 16.7 2.9 34.9 19.5 40.8s34.9-2.9 40.8-19.5zM39 289.3c-5 1.5-9.8 4.2-13.7 8.2c-4 4-6.7 8.8-8.1 14c-.3 1.2-.6 2.5-.8 3.8c-.3 1.7-.4 3.4-.4 5.1V432c0 17.7 14.3 32 32 32s32-14.3 32-32v-35.2l17.6 17.5c87.5 87.4 229.3 87.4 316.7 0c24.4-24.4 42.1-53.1 52.9-83.7c5.9-16.7-2.9-34.9-19.5-40.8s-34.9 2.9-40.8 19.5c-7.7 21.8-20.2 42.3-37.8 59.8c-62.5 62.5-163.8 62.5-226.3 0l-17.5-17.5H160c17.7 0 32-14.3 32-32s-14.3-32-32-32H48.4c-3.2 0-6.3.5-9.4 1.4z"/></symbol>
  <symbol id="icon-book" viewBox="0 0 448 512"><path fill="currentColor" d="M96 0C43 0 0 43 0 96v320c0 53 43 96 96 96h320c17.7 0 32-14.3 32-32s-14.3-32-32-32v-64c17.7 0 32-14.3 32-32V32c0-17.7-14.3-32-32-32H96zm0 384h256v64H96c-17.7 0-32-14.3-32-32s14.3-32 32-32zm32-240c0-8.8 7.2-16 16-16h192c8.8 0 16 7.2 16 16s-7.2 16-16 16H144c-8.8 0-16-7.2-16-16zm16 48h192c8.8 0 16 7.2 16 16s-7.2 16-16 16H144c-8.8 0-16-7.2-16-16s7.2-16 16-16z"/></symbol>
  <symbol id="icon-check" viewBox="0 0 448 512"><path fill="currentColor" d="M438.6 105.4c12.5 12.5 12.5 32.8 0 45.3l-256 256c-12.5 12.5-32.8 12.5-45.3 0l-128-128c-12.5-12.5-12.5-32.8 0-45.3s32.8-12.5 45.3 0L160 338.7l233.4-233.3c12.5-12.5 32.8-12.5 45.3 0z"/></symbol>
  <symbol id="icon-chevron-up" viewBox="0 0 512 512"><path fill="currentColor" d="M233.4 105.4c12.5-12.5 32.8-12.5 45.3 0l192 192c12.5 12.5 12.5 32.8 0 45.3s-32.8 12.5-45.3 0L256 173.3 86.6 342.6c-12.5 12.5-32.8 12.5-45.3 0s-12.5-32.8 0-45.3l192-192z"/></symbol>
  <symbol id="icon-code" viewBox="0 0 640 512"><path fill="currentColor" d="M392.8 1.2c-17-4.9-34.7 5-39.6 22l-128 448c-4.9 17 5 34.7 22 39.6s34.7-5 39.6-22l128-448c4.9-17-5-34.7-22-39.6zm80.6 120.1c-12.5 12.5-12.5 32.8 0 45.3L562.7 256l-89.4 89.4c-12.5 12.5-12.5 32.8 0 45.3s32.8 12.5 45.3 0l112-112c12.5-12.5 12.5-32.8 0-45.3l-112-112c-12.5-12.5-32.8-12.5-45.3 0zm-306.7 0c-12.5-12.5-32.8-12.5-45.3 0l-112 112c-12.5 12.5-12.5 32.8 0 45.3l112 112c12.5 12.5 32.8 12.5 45.3 0s12.5-32.8 0-45.3L77.3 256l89.4-89.4c12.5-12.5 12.5-32.8 0-45.3z"/></symbol>
  <symbol id="icon-layer-group" viewBox="0 0 576 512"><path fill="currentColor" d="M264.5 5.2c14.9-6.9 32.1-6.9 47 0l218.6 101c8.5 3.9 13.9 12.4 13.9 21.8s-5.4 17.9-13.9 21.8l-218.6 101c-14.9 6.9-32.1 6.9-47 0L45.9 149.8C37.4 145.8 32 137.3 32 128s5.4-17.9 13.9-21.8L264.5 5.2zM476.9 209.6l53.2 24.6c8.5 3.9 13.9 12.4 13.9 21.8s-5.4 17.9-13.9 21.8l-218.6 101c-14.9 6.9-32.1 6.9-47 0L45.9 277.8C37.4 273.8 32 265.3 32 256s5.4-17.9 13.9-21.8l53.2-24.6 152 70.2c23.4 10.8 50.4 10.8 73.8 0l152-70.2zm-152 198.2l152-70.2 53.2 24.6c8.5 3.9 13.9 12.4 13.9 21.8s-5.4 17.9-13.9 21.8l-218.6 101c-14.9 6.9-32.1 6.9-47 0L45.9 405.8C37.4 401.8 32 393.3 32 384s5.4-17.9 13.9-21.8l53.2-24.6 152 70.2c23.4 10.8 50.4 10.8 73.8 0z"/></symbol>
  <symbol id="icon-link" viewBox="0 0 640 512"><path fill="currentColor" d="M579.8 267.7c56.5-56.5 56.5-148 0-204.5c-50-50-128.8-56.5-186.3-15.4l-1.6 1.1c-14.4 10.3-17.7 30.3-7.4 44.6s30.3 17.7 44.6 7.4l1.6-1.1c32.1-22.9 76-19.3 103.8 8.6c31.5 31.5 31.5 82.5 0 114L422.3 334.8c-31.5 31.5-82.5 31.5-114 0c-27.9-27.9-31.5-71.8-8.6-103.8l1.1-1.6c10.3-14.4 6.9-34.4-7.4-44.6s-34.4-6.9-44.6 7.4l-1.1 1.6C206.5 251.2 213 330 263 380c56.5 56.5 148 56.5 204.5 0L579.8 267.7zM60.2 244.3c-56.5 56.5-56.5 148 0 204.5c50 50 128.8 56.5 186.3 15.4l1.6-1.1c14.4-10.3 17.7-30.3 7.4-44.6s-30.3-17.7-44.6-7.4l-1.6 1.1c-32.1 22.9-76 19.3-103.8-8.6C74 372.1 74 321.1 105.5 289.5L217.7 177.2c31.5-31.5 82.5-31.5 114 0c27.9 27.9 31.5 71.8 8.6 103.9l-1.1 1.6c-10.3 14.4-6.9 34.4 7.4 44.6s34.4 6.9 44.6-7.4l1.1-1.6C433.5 260.8 427 182 377 132c-56.5-56.5-148-56.5-204.5 0L60.2 244.3z"/></symbol>
  <symbol id="icon-list" viewBox="0 0 512 512"><path fill="currentColor" d="M40 48C26.7 48 16 58.7 16 72v48c0 13.3 10.7 24 24 24h48c13.3 0 24-10.7 24-24V72c0-13.3-10.7-24-24-24H40zM192 64c-17.7 0-32 14.3-32 32s14.3 32 32 32h288c17.7 0 32-14.3 32-32s-14.3-32-32-32H192zm0 160c-17.7 0-32 14.3-32 32s14.3 32 32 32h288c17.7 0 32-14.3 32-32s-14.3-32-32-32H192zm0 160c-17.7 0-32 14.3-32 32s14.3 32 32 32h288c17.7 0 32-14.3 32-32s-14.3-32-32-32H192zM16 232v48c0 13.3 10.7 24 24 24h48c13.3 0 24-10.7 24-24v-48c0-13.3-10.7-24-24-24H40c-13.3 0-24 10.7-24 24zm24 136c-13.3 0-24 10.7-24 24v48c0 13.3 10.7 24 24 24h48c13.3 0 24-10.7 24-24v-48c0-13.3-10.7-24-24-24H40z"/></symbol>
  <symbol id="icon-magnifying-glass" viewBox="0 0 512 512"><path fill="currentColor" d="M416 208c0 45.9-14.9 88.3-40 122.7l126.6 126.7c12.5 12.5 12.5 32.8 0 45.3s-32.8 12.5-45.3 0L330.7 376c-34.4 25.2-76.8 40-122.7 40C93.1 416 0 322.9 0 208S93.1 0 208 0s208 93.1 208 208zM208 352a144 144 0 1 0 0-288 144 144 0 1 0 0 288z"/></symbol>
  <symbol id="icon-pen-to-square" viewBox="0 0 512 512"><path fill="currentColor" d="M471.6 21.7c-21.9-21.9-57.3-21.9-79.2 0L362.3 51.7l97.9 97.9 30.1-30.1c21.9-21.9 21.9-57.3 0-79.2L471.6 21.7zm-299.2 220c-6.1 6.1-10.8 13.6-13.5 21.9l-29.6 88.8c-2.9 8.6-.6 18.1 5.8 24.6s15.9 8.7 24.6 5.8l88.8-29.6c8.2-2.7 15.7-7.4 21.9-13.5L437.7 172.3 339.7 74.3 172.4 241.7zM96 64C43 64 0 107 0 160v256c0 53 43 96 96 96h256c53 0 96-43 96-96v-96c0-17.7-14.3-32-32-32s-32 14.3-32 32v96c0 17.7-14.3 32-32 32H96c-17.7 0-32-14.3-32-32V160c0-17.7 14.3-32 32-32h96c17.7 0 32-14.3 32-32s-14.3-32-32-32H96z"/></symbol>
  <symbol id="icon-rss" viewBox="0 0 448 512"><path fill="currentColor" d="M0 64C0 46.3 14.3 32 32 32c229.8 0 416 186.2 416 416c0 17.7-14.3 32-32 32s-32-14.3-32-32C384 253.6 226.4 96 32 96 14.3 96 0 81.7 0 64zm0 352a64 64 0 1 1 128 0 64 64 0 1 1-128 0zm32-256c159.1 0 288 128.9 288 288c0 17.7-14.3 32-32 32s-32-14.3-32-32c0-123.7-100.3-224-224-224c-17.7 0-32-14.3-32-32s14.3-32 32-32z"/></symbol>
  <symbol id="icon-user" viewBox="0 0 448 512"><path fill="currentColor" d="M224 256A128 128 0 1 0 224 0a128 128 0 1 0 0 256zm-45.7 48C79.8 304 0 383.8 0 482.3C0 498.7 13.3 512 29.7 512H418.3c16.4 0 29.7-13.3 29.7-29.7C448 383.8 368.2 304 269.7 304H178.3z"/></symbol>
  <symbol id="icon-xmark" viewBox="0 0 384 512"><path fill="currentColor" d="M342.6 150.6c12.5-12.5 12.5-32.8 0-45.3s-32.8-12.5-45.3 0L192 210.7 86.6 105.4c-12.5-12.5-32.8-12.5-45.3 0s-12.5 32.8 0 45.3L146.7 256 41.4 361.4c-12.5 12.5-12.5 32.8 0 45.3s32.8 12.5 45.3 0L192 301.3l105.4 105.3c12.5 12.5 32.8 12.5 45.3 0s12.5-32.8 0-45.3L237.3 256l105.3-105.4z"/></symbol>
  <!-- Regular icons -->
  <symbol id="icon-clock" viewBox="0 0 512 512"><path fill="currentColor" d="M464 256A208 208 0 1 1 48 256a208 208 0 1 1 416 0zM0 256a256 256 0 1 0 512 0A256 256 0 1 0 0 256zm232-136v136c0 8 4 15.5 10.7 20l96 64c11 7.4 25.9 4.4 33.3-6.7s4.4-25.9-6.7-33.3L280 243.2V120c0-13.3-10.7-24-24-24s-24 10.7-24 24z"/></symbol>
  <symbol id="icon-envelope" viewBox="0 0 512 512"><path fill="currentColor" d="M64 112c-8.8 0-16 7.2-16 16v22.1L220.5 291.7c20.7 17 50.4 17 71.1 0L464 150.1V128c0-8.8-7.2-16-16-16H64zM48 212.2V384c0 8.8 7.2 16 16 16h384c8.8 0 16-7.2 16-16V212.2L322 328.8c-38.4 31.5-93.7 31.5-132 0L48 212.2zM0 128C0 92.7 28.7 64 64 64h384c35.3 0 64 28.7 64 64v256c0 35.3-28.7 64-64 64H64c-35.3 0-64-28.7-64-64V128z"/></symbol>
  <symbol id="icon-moon" viewBox="0 0 384 512"><path fill="currentColor" d="M223.5 32C100 32 0 132.3 0 256s100 224 223.5 224c60.6 0 115.5-24.2 155.8-63.4c5-4.9 6.3-12.5 3.1-18.7s-10.1-9.7-17-8.5c-9.8 1.7-19.8 2.6-30.1 2.6c-96.9 0-175.5-78.8-175.5-176c0-65.8 36-123.1 89.3-153.3c6.1-3.5 9.2-10.5 7.7-17.3s-7.3-11.9-14.3-12.5c-6.3-.5-12.6-.8-19-.8z"/></symbol>
  <symbol id="icon-sun" viewBox="0 0 512 512"><path fill="currentColor" d="M375.7 19.7c-1.5-8-6.9-14.7-14.4-17.8s-16.1-2.2-22.8 2.4L256 61.1 173.5 4.2c-6.7-4.6-15.3-5.5-22.8-2.4s-12.9 9.8-14.4 17.8l-18.1 98.5L19.7 136.3c-8 1.5-14.7 6.9-17.8 14.4s-2.2 16.1 2.4 22.8L61.1 256 4.2 338.5c-4.6 6.7-5.5 15.3-2.4 22.8s9.8 12.9 17.8 14.4l98.5 18.1 18.1 98.5c1.5 8 6.9 14.7 14.4 17.8s16.1 2.2 22.8-2.4L256 450.9l82.5 56.9c6.7 4.6 15.3 5.5 22.8 2.4s12.9-9.8 14.4-17.8l18.1-98.5 98.5-18.1c8-1.5 14.7-6.9 17.8-14.4s2.2-16.1-2.4-22.8L450.9 256l56.9-82.5c4.6-6.7 5.5-15.3 2.4-22.8s-9.8-12.9-17.8-14.4l-98.5-18.1-18.1-98.5zM256 368a112 112 0 1 0 0-224 112 112 0 1 0 0 224z"/></symbol>
  <symbol id="icon-file-lines" viewBox="0 0 384 512"><path fill="currentColor" d="M64 464c-8.8 0-16-7.2-16-16V64c0-8.8 7.2-16 16-16h160v80c0 17.7 14.3 32 32 32h80v288c0 8.8-7.2 16-16 16H64zM64 0C28.7 0 0 28.7 0 64v384c0 35.3 28.7 64 64 64h256c35.3 0 64-28.7 64-64V154.5c0-17-6.7-33.3-18.7-45.3L274.7 18.7C262.7 6.7 246.5 0 229.5 0H64zm56 256c-13.3 0-24 10.7-24 24s10.7 24 24 24h144c13.3 0 24-10.7 24-24s-10.7-24-24-24H120zm0 96c-13.3 0-24 10.7-24 24s10.7 24 24 24h144c13.3 0 24-10.7 24-24s-10.7-24-24-24H120z"/></symbol>
  <symbol id="icon-calendar" viewBox="0 0 448 512"><path fill="currentColor" d="M152 24c0-13.3-10.7-24-24-24s-24 10.7-24 24v40H64C28.7 64 0 92.7 0 128v16 48v256c0 35.3 28.7 64 64 64h320c35.3 0 64-28.7 64-64V192 176 128c0-35.3-28.7-64-64-64h-40V24c0-13.3-10.7-24-24-24s-24 10.7-24 24v40H152V24zM48 192h352v256c0 8.8-7.2 16-16 16H64c-8.8 0-16-7.2-16-16V192z"/></symbol>
  <symbol id="icon-sitemap" viewBox="0 0 576 512"><path fill="currentColor" d="M208 80c0-26.5 21.5-48 48-48h64c26.5 0 48 21.5 48 48v64c0 26.5-21.5 48-48 48h-8v40H464c30.9 0 56 25.1 56 56v32h8c26.5 0 48 21.5 48 48v64c0 26.5-21.5 48-48 48h-64c-26.5 0-48-21.5-48-48v-64c0-26.5 21.5-48 48-48h8v-32c0-4.4-3.6-8-8-8H312v40h8c26.5 0 48 21.5 48 48v64c0 26.5-21.5 48-48 48h-64c-26.5 0-48-21.5-48-48v-64c0-26.5 21.5-48 48-48h8v-40H112c-4.4 0-8 3.6-8 8v32h8c26.5 0 48 21.5 48 48v64c0 26.5-21.5 48-48 48H48c-26.5 0-48-21.5-48-48v-64c0-26.5 21.5-48 48-48h8v-32c0-30.9 25.1-56 56-56h152v-40h-8c-26.5 0-48-21.5-48-48V80z"/></symbol>
  <symbol id="icon-cloud" viewBox="0 0 640 512"><path fill="currentColor" d="M0 336c0 79.5 64.5 144 144 144h368c70.7 0 128-57.3 128-128 0-61.9-44-113.6-102.4-125.4 4.1-10.7 6.4-22.4 6.4-34.6 0-53-43-96-96-96-19.7 0-38.1 6-53.3 16.2C367 64.2 315.3 32 256 32 167.6 32 96 103.6 96 192c0 2.7.1 5.4.2 8C40.2 219.8 0 273.2 0 336z"/></symbol>
  <symbol id="icon-code-fork" viewBox="0 0 448 512"><path fill="currentColor" d="M80 104a24 24 0 1 0 0-48 24 24 0 1 0 0 48zm80-24c0 32.8-19.7 61-48 73.3v87.8c18.8-10.9 40.7-17.1 64-17.1h96c35.3 0 64-28.7 64-64v-6.7C307.7 141 288 112.8 288 80c0-44.2 35.8-80 80-80s80 35.8 80 80c0 32.8-19.7 61-48 73.3V160c0 70.7-57.3 128-128 128H176c-35.3 0-64 28.7-64 64v6.7c28.3 12.3 48 40.5 48 73.3 0 44.2-35.8 80-80 80s-80-35.8-80-80c0-32.8 19.7-61 48-73.3V153.3C19.7 141 0 112.8 0 80 0 35.8 35.8 0 80 0s80 35.8 80 80zm288 0a24 24 0 1 0-48 0 24 24 0 1 0 48 0zM104 432a24 24 0 1 0-48 0 24 24 0 1 0 48 0z"/></symbol>
  <symbol id="icon-chart-line" viewBox="0 0 512 512"><path fill="currentColor" d="M64 64c0-17.7-14.3-32-32-32S0 46.3 0 64v336c0 44.2 35.8 80 80 80h400c17.7 0 32-14.3 32-32s-14.3-32-32-32H80c-8.8 0-16-7.2-16-16V64zm406.6 86.6c12.5-12.5 12.5-32.8 0-45.3s-32.8-12.5-45.3 0L320 210.7l-57.4-57.4c-12.5-12.5-32.8-12.5-45.3 0l-112 112c-12.5 12.5-12.5 32.8 0 45.3s32.8 12.5 45.3 0L240 221.3l57.4 57.4c12.5 12.5 32.8 12.5 45.3 0l128-128z"/></symbol>
  <symbol id="icon-microchip" viewBox="0 0 512 512"><path fill="currentColor" d="M176 24c0-13.3-10.7-24-24-24s-24 10.7-24 24v40H96C60.7 64 32 92.7 32 128v8H24C10.7 136 0 146.7 0 160s10.7 24 24 24h8v48H24c-13.3 0-24 10.7-24 24s10.7 24 24 24h8v48H24c-13.3 0-24 10.7-24 24s10.7 24 24 24h8v8c0 35.3 28.7 64 64 64h32v40c0 13.3 10.7 24 24 24s24-10.7 24-24v-40h48v40c0 13.3 10.7 24 24 24s24-10.7 24-24v-40h48v40c0 13.3 10.7 24 24 24s24-10.7 24-24v-40h32c35.3 0 64-28.7 64-64v-8h8c13.3 0 24-10.7 24-24s-10.7-24-24-24h-8v-48h8c13.3 0 24-10.7 24-24s-10.7-24-24-24h-8v-48h8c13.3 0 24-10.7 24-24s-10.7-24-24-24h-8v-8c0-35.3-28.7-64-64-64h-32V24c0-13.3-10.7-24-24-24s-24 10.7-24 24v40h-48V24c0-13.3-10.7-24-24-24s-24 10.7-24 24v40h-48V24zM96 128h320c8.8 0 16 7.2 16 16v224c0 8.8-7.2 16-16 16H96c-8.8 0-16-7.2-16-16V144c0-8.8 7.2-16 16-16zm64 80v96c0 8.8 7.2 16 16 16h160c8.8 0 16-7.2 16-16v-96c0-8.8-7.2-16-16-16H176c-8.8 0-16 7.2-16 16z"/></symbol>
  <symbol id="icon-database" viewBox="0 0 448 512"><path fill="currentColor" d="M448 80v48c0 44.2-100.3 80-224 80S0 172.2 0 128V80C0 35.8 100.3 0 224 0s224 35.8 224 80zM393.2 214.7c20.8-7.4 39.9-16.9 54.8-28.6V288c0 44.2-100.3 80-224 80S0 332.2 0 288V186.1c14.9 11.8 34 21.2 54.8 28.6C99.7 230.7 159.5 240 224 240s124.3-9.3 169.2-25.3zM0 346.1c14.9 11.8 34 21.2 54.8 28.6C99.7 390.7 159.5 400 224 400s124.3-9.3 169.2-25.3c20.8-7.4 39.9-16.9 54.8-28.6V432c0 44.2-100.3 80-224 80S0 476.2 0 432V346.1z"/></symbol>
  <symbol id="icon-server" viewBox="0 0 512 512"><path fill="currentColor" d="M64 32C28.7 32 0 60.7 0 96v64c0 35.3 28.7 64 64 64h384c35.3 0 64-28.7 64-64V96c0-35.3-28.7-64-64-64H64zm280 72a24 24 0 1 1 0 48 24 24 0 1 1 0-48zm48 24a24 24 0 1 1 48 0 24 24 0 1 1-48 0zM64 288c-35.3 0-64 28.7-64 64v64c0 35.3 28.7 64 64 64h384c35.3 0 64-28.7 64-64v-64c0-35.3-28.7-64-64-64H64zm280 72a24 24 0 1 1 0 48 24 24 0 1 1 0-48zm48 24a24 24 0 1 1 48 0 24 24 0 1 1-48 0z"/></symbol>
  <symbol id="icon-leaf" viewBox="0 0 512 512"><path fill="currentColor" d="M272 96c-78.6 0-145.1 51.5-167.7 122.5c33.6-17 71.5-26.5 111.7-26.5h88c8.8 0 16 7.2 16 16s-7.2 16-16 16H216c-47.2 0-90.9 14.2-127.4 38.6C72.7 293.8 64 320.8 64 350c0 53.2 42.7 96 95.2 96H272c150.1 0 272-121.9 272-272V80c0-26.5-21.5-48-48-48H272zM160 224c0-17.7 14.3-32 32-32s32 14.3 32 32-14.3 32-32 32-32-14.3-32-32z"/></symbol>
  <symbol id="icon-folder" viewBox="0 0 512 512"><path fill="currentColor" d="M64 480h384c35.3 0 64-28.7 64-64V160c0-35.3-28.7-64-64-64H298.5c-17 0-33.3-6.7-45.3-18.7l-26.5-26.5c-12-12-28.3-18.7-45.3-18.7H64C28.7 32 0 60.7 0 96v320c0 35.3 28.7 64 64 64z"/></symbol>
  <symbol id="icon-folder-open" viewBox="0 0 576 512"><path fill="currentColor" d="M88.7 223.8L0 375.8V96c0-35.3 28.7-64 64-64h117.5c16.2 0 31.8 6.5 43.3 17.9l26.5 26.5c11.5 11.5 27.1 17.9 43.3 17.9H416c35.3 0 64 28.7 64 64v32H144c-22.8 0-43.8 12.1-55.3 31.8zm27.6 16.2C122.1 230 132.6 224 144 224h400c16.5 0 28.5 15.8 24 31.8l-44 128C519.3 398 506.4 408 492 408H92c-16.5 0-28.5-15.9-24-31.8l48.3-136.2z"/></symbol>
  <!-- Additional solid icons -->
  <symbol id="icon-home" viewBox="0 0 576 512"><path fill="currentColor" d="M575.8 255.5c0 18-15 32.1-32 32.1h-32l.7 160.2c0 2.7-.2 5.4-.5 8.1V472c0 22.1-17.9 40-40 40h-16c-1.1 0-2.2 0-3.3-.1-1.4.1-2.8.1-4.2.1H392c-22.1 0-40-17.9-40-40v-88c0-17.7-14.3-32-32-32h-64c-17.7 0-32 14.3-32 32v88c0 22.1-17.9 40-40 40h-55.9c-1.5 0-3-.1-4.5-.2-1.2.1-2.4.2-3.6.2h-16c-22.1 0-40-17.9-40-40v-120c0-.9 0-1.9.1-2.8V287.6H32c-18 0-32-14-32-32.1 0-9 3-17 10-24L266.4 8c7-7 15-8 22-8s15 2 21 7L564.8 231.5c8 7 12 15 11 24z"/></symbol>
  <symbol id="icon-tags" viewBox="0 0 512 512"><path fill="currentColor" d="M345 39.1L472.8 168.4c52.4 53 52.4 138.2 0 191.2l-104.8 106.2c-52.4 53-137.2 53-189.6 0L50.6 337.4c-10.8-10.9-18.2-24.7-21.4-39.6L7 146.7C2.6 126.3 8.3 105.1 22 89.7l2.8-2.9C40.5 70.5 61.8 64.8 82.1 69.2l150.2 22.4c14.8 3.2 28.5 10.7 39.4 21.6L399.5 241.5c6.2 6.3 6.2 16.4 0 22.6s-16.2 6.3-22.4 0L249.3 135.8c-5.5-5.5-12.3-9.3-19.8-10.8L79.3 102.6c-4.2-.9-8.5.3-11.3 3.2l-2.8 2.9c-2.8 2.8-3.9 7.1-3 11.3L84.6 270.2c1.6 7.5 5.3 14.4 10.8 19.9l127.8 128.3c33.6 33.8 88.3 33.8 121.9 0l104.8-106.2c33.6-34 33.6-88.8 0-122.6L322.2 61.8c-6.2-6.3-6.2-16.4 0-22.6s16.2-6.3 22.4 0l.4 0zM168 160a24 24 0 1 0-48 0 24 24 0 1 0 48 0z"/></symbol>
  <symbol id="icon-external-link" viewBox="0 0 512 512"><path fill="currentColor" d="M320 0c-17.7 0-32 14.3-32 32s14.3 32 32 32h82.7L201.4 265.4c-12.5 12.5-12.5 32.8 0 45.3s32.8 12.5 45.3 0L448 109.3V192c0 17.7 14.3 32 32 32s32-14.3 32-32V32c0-17.7-14.3-32-32-32H320zM80 32C35.8 32 0 67.8 0 112v320c0 44.2 35.8 80 80 80h320c44.2 0 80-35.8 80-80V320c0-17.7-14.3-32-32-32s-32 14.3-32 32v112c0 8.8-7.2 16-16 16H80c-8.8 0-16-7.2-16-16V112c0-8.8 7.2-16 16-16h112c17.7 0 32-14.3 32-32s-14.3-32-32-32H80z"/></symbol>
  <symbol id="icon-globe" viewBox="0 0 512 512"><path fill="currentColor" d="M352 256c0 22.2-1.2 43.6-3.3 64H163.3c-2.2-20.4-3.3-41.8-3.3-64s1.2-43.6 3.3-64h185.4c2.2 20.4 3.3 41.8 3.3 64zm28.8-64h123.1c5.3 20.5 8.1 41.9 8.1 64s-2.8 43.5-8.1 64H380.8c2.1-20.6 3.2-42 3.2-64s-1.1-43.4-3.2-64zm112.6-32H376.7c-10-63.9-29.8-117.4-55.3-151.6C399.7 29.1 463.4 95.7 493.4 160zm-149.1 0H167.7c6.1-36.4 15.5-68.6 27-94.7 10.5-23.6 22.2-40.7 33.5-51.5C239.4 3.2 248.7 0 256 0s16.6 3.2 27.8 13.8c11.3 10.8 23 27.9 33.5 51.5 11.5 26.1 20.9 58.3 27 94.7zm-209.3 0H18.6C48.6 95.7 112.3 29.1 190.7 8.4C165.1 42.6 145.3 96.1 135.3 160zM8.1 192H131.2c-2.1 20.6-3.2 42-3.2 64s1.1 43.4 3.2 64H8.1C2.8 299.5 0 278.1 0 256s2.8-43.5 8.1-64zM194.7 446.6c-11.5-26.1-20.9-58.3-27-94.6h176.6c-6.1 36.3-15.5 68.5-27 94.6-10.5 23.6-22.2 40.7-33.5 51.5C272.6 508.8 263.3 512 256 512s-16.6-3.2-27.8-13.8c-11.3-10.8-23-27.9-33.5-51.5zM135.3 352c10 63.9 29.8 117.4 55.3 151.6C112.3 482.9 48.6 416.3 18.6 352h116.7zm241.3 0h116.7c-30 64.3-93.7 130.9-172.1 151.6 25.5-34.2 45.3-87.7 55.3-151.6z"/></symbol>
  <symbol id="icon-cube" viewBox="0 0 512 512"><path fill="currentColor" d="M234.5 5.7c13.9-5.1 29.1-5.1 43 0l192 70.6c23.4 8.6 38.5 31 38.5 55.8V380c0 24.8-15.1 47.2-38.5 55.8l-192 70.6c-13.9 5.1-29.1 5.1-43 0l-192-70.6C19.1 427.2 4 404.8 4 380V132c0-24.8 15.1-47.2 38.5-55.8l192-70.6zM256 66L82.3 130 256 194l173.7-64L256 66zm-16 349.4V224.1L64 160.7V380l176 35.4zm32 0L448 380V160.7L272 224.1v191.3z"/></symbol>

  <!-- Brand icons -->
  <symbol id="icon-github" viewBox="0 0 496 512"><path fill="currentColor" d="M165.9 397.4c0 2-2.3 3.6-5.2 3.6-3.3.3-5.6-1.3-5.6-3.6 0-2 2.3-3.6 5.2-3.6 3-.3 5.6 1.3 5.6 3.6zm-31.1-4.5c-.7 2 1.3 4.3 4.3 4.9 2.6 1 5.6 0 6.2-2s-1.3-4.3-4.3-5.2c-2.6-.7-5.5.3-6.2 2.3zm44.2-1.7c-2.9.7-4.9 2.6-4.6 4.9.3 2 2.9 3.3 5.9 2.6 2.9-.7 4.9-2.6 4.6-4.6-.3-1.9-3-3.2-5.9-2.9zM244.8 8C106.1 8 0 113.3 0 252c0 110.9 69.8 205.8 169.5 239.2 12.8 2.3 17.3-5.6 17.3-12.1 0-6.2-.3-40.4-.3-61.4 0 0-70 15-84.7-29.8 0 0-11.4-29.1-27.8-36.6 0 0-22.9-15.7 1.6-15.4 0 0 24.9 2 38.6 25.8 21.9 38.6 58.6 27.5 72.9 20.9 2.3-16 8.8-27.1 16-33.7-55.9-6.2-112.3-14.3-112.3-110.5 0-27.5 7.6-41.3 23.6-58.9-2.6-6.5-11.1-33.3 2.6-67.9 20.9-6.5 69 27 69 27 20-5.6 41.5-8.5 62.8-8.5s42.8 2.9 62.8 8.5c0 0 48.1-33.6 69-27 13.7 34.7 5.2 61.4 2.6 67.9 16 17.7 25.8 31.5 25.8 58.9 0 96.5-58.9 104.2-114.8 110.5 9.2 7.9 17 22.9 17 46.4 0 33.7-.3 75.4-.3 83.6 0 6.5 4.6 14.4 17.3 12.1C428.2 457.8 496 362.9 496 252 496 113.3 383.5 8 244.8 8zM97.2 352.9c-1.3 1-1 3.3.7 5.2 1.6 1.6 3.9 2.3 5.2 1 1.3-1 1-3.3-.7-5.2-1.6-1.6-3.9-2.3-5.2-1zm-10.8-8.1c-.7 1.3.3 2.9 2.3 3.9 1.6 1 3.6.7 4.3-.7.7-1.3-.3-2.9-2.3-3.9-2-.6-3.6-.3-4.3.7zm32.4 35.6c-1.6 1.3-1 4.3 1.3 6.2 2.3 2.3 5.2 2.6 6.5 1 1.3-1.3.7-4.3-1.3-6.2-2.2-2.3-5.2-2.6-6.5-1zm-11.4-14.7c-1.6 1-1.6 3.6 0 5.9 1.6 2.3 4.3 3.3 5.6 2.3 1.6-1.3 1.6-3.9 0-6.2-1.4-2.3-4-3.3-5.6-2z"/></symbol>
  <symbol id="icon-linkedin" viewBox="0 0 448 512"><path fill="currentColor" d="M416 32H31.9C14.3 32 0 46.5 0 64.3v383.4C0 465.5 14.3 480 31.9 480H416c17.6 0 32-14.5 32-32.3V64.3c0-17.8-14.4-32.3-32-32.3zM135.4 416H69V202.2h66.5V416zm-33.2-243c-21.3 0-38.5-17.3-38.5-38.5S80.9 96 102.2 96c21.2 0 38.5 17.3 38.5 38.5 0 21.3-17.2 38.5-38.5 38.5zm282.1 243h-66.4V312c0-24.8-.5-56.7-34.5-56.7-34.6 0-39.9 27-39.9 54.9V416h-66.4V202.2h63.7v29.2h.9c8.9-16.8 30.6-34.5 62.9-34.5 67.2 0 79.7 44.3 79.7 101.9V416z"/></symbol>
  <symbol id="icon-x-twitter" viewBox="0 0 512 512"><path fill="currentColor" d="M389.2 48h70.6L305.6 224.2 487 464H345L233.7 318.6 106.5 464H35.8l164.9-188.5L26.8 48h145.6l100.5 132.9L389.2 48zm-24.8 373.8h39.1L151.1 88h-42L364.4 421.8z"/></symbol>
  <symbol id="icon-twitter" viewBox="0 0 512 512"><path fill="currentColor" d="M459.37 151.716c.325 4.548.325 9.097.325 13.645 0 138.72-105.583 298.558-298.558 298.558-59.452 0-114.68-17.219-161.137-47.106 8.447.974 16.568 1.299 25.34 1.299 49.055 0 94.213-16.568 130.274-44.832-46.132-.975-84.792-31.188-98.112-72.772 6.498.974 12.995 1.624 19.818 1.624 9.421 0 18.843-1.3 27.614-3.573-48.081-9.747-84.143-51.98-84.143-102.985v-1.299c13.969 7.797 30.214 12.67 47.431 13.319-28.264-18.843-46.781-51.005-46.781-87.391 0-19.492 5.197-37.36 14.294-52.954 51.655 63.675 129.3 105.258 216.365 109.807-1.624-7.797-2.599-15.918-2.599-24.04 0-57.828 46.782-104.934 104.934-104.934 30.213 0 57.502 12.67 76.67 33.137 23.715-4.548 46.456-13.32 66.599-25.34-7.798 24.366-24.366 44.833-46.132 57.827 21.117-2.273 41.584-8.122 60.426-16.243-14.292 20.791-32.161 39.308-52.628 54.253z"/></symbol>
  <symbol id="icon-react" viewBox="0 0 512 512"><path fill="currentColor" d="M418.2 177.2c-5.4-1.8-10.8-3.5-16.2-5.1.9-3.7 1.7-7.4 2.5-11.1 12.3-59.6 4.2-107.5-23.1-123.3-26.3-15.1-69.2.6-112.6 38.4-4.3 3.8-8.5 7.6-12.5 11.5-2.7-2.6-5.5-5.2-8.3-7.7-45.5-40.4-91.1-57.4-118.4-41.5-26.2 15.2-34 60.3-23 116.7 1.1 5.6 2.3 11.1 3.7 16.7-6.4 1.8-12.7 3.8-18.6 5.9C38.3 196.2 0 225.4 0 255.6c0 31.2 40.8 62.5 96.3 81.5 4.5 1.5 9 3 13.6 4.3-1.5 6-2.8 11.9-4 18-10.5 55.5-2.3 99.5 23.9 114.6 27 15.6 72.4-.4 116.6-39.1 3.5-3.1 7-6.3 10.5-9.7 4.4 4.3 9 8.4 13.6 12.4 42.8 36.8 85.1 51.7 111.2 36.6 27-15.6 35.8-62.9 24.4-120.5-.9-4.4-1.9-8.9-3-13.5 3.2-.9 6.3-1.9 9.4-2.9 57.7-19.1 99.5-50 99.5-81.7 0-30.3-39.4-59.7-93.8-78.4zM282.9 92.3c37.2-32.4 71.9-45.1 87.7-36 16.9 9.7 23.4 48.9 12.8 100.4-.7 3.4-1.4 6.7-2.3 10-22.2-5-44.7-8.6-67.3-10.6-13-18.6-27.2-36.4-42.6-53.1 3.9-3.7 7.7-7.2 11.7-10.7zM167.2 307.5c5.1 8.7 10.3 17.4 15.8 25.9-15.6-1.7-31.1-4.2-46.4-7.5 4.4-14.4 9.9-29.3 16.3-44.5 4.6 8.8 9.3 17.5 14.3 26.1zm-30.3-120.3c14.4-3.2 29.7-5.8 45.6-7.8-5.3 8.3-10.5 16.8-15.4 25.4-4.9 8.5-9.7 17.2-14.2 26-6.3-14.9-11.6-29.5-16-43.6zm27.4 68.9c6.6-13.8 13.8-27.3 21.4-40.6s15.8-26.2 24.4-38.9c15-1.1 30.3-1.7 45.9-1.7s31 .6 45.9 1.7c8.5 12.6 16.6 25.5 24.3 38.7s14.9 26.7 21.7 40.4c-6.7 13.8-13.9 27.4-21.6 40.8-7.6 13.3-15.7 26.2-24.2 39-14.9 1.1-30.4 1.6-46.1 1.6s-30.9-.5-45.6-1.4c-8.7-12.7-16.9-25.7-24.6-39s-14.8-26.8-21.5-40.6zm180.6 51.2c5.1-8.8 9.9-17.7 14.6-26.7 6.4 14.5 12 29.2 16.9 44.3-15.5 3.5-31.2 6.2-47 8 5.4-8.4 10.5-17 15.5-25.6zm14.4-76.5c-4.7-8.8-9.5-17.6-14.5-26.2-4.9-8.5-10-16.9-15.3-25.2 16.1 2 31.5 4.7 45.9 8-4.6 14.8-10 29.2-16.1 43.4zM256.2 118.3c10.5 11.4 20.4 23.4 29.6 35.8-19.8-.9-39.7-.9-59.5 0 9.8-12.9 19.9-24.9 29.9-35.8zM140.2 57c16.8-9.8 54.1 4.2 93.4 39 2.5 2.2 5 4.6 7.6 7-15.5 16.7-29.8 34.5-42.9 53.1-22.6 2-45 5.5-67.2 10.4-1.3-5.1-2.4-10.3-3.5-15.5-9.4-48.4-3.2-84.9 12.6-94zm-24.5 263.6c-4.2-1.2-8.3-2.5-12.4-3.9-21.3-6.7-45.5-17.3-63-31.2-10.1-7.9-17.6-16.7-17.6-26.1 0-19.2 31.9-46.2 80-63.7 5.2-1.9 10.6-3.6 16-5.2 7.3 23.3 16.6 45.9 27.8 67.5-10.3 21.2-19.1 43.2-25.7 64.5-.1 0-.3-.1-.5-.1-1.5-.4-3.2-.8-4.6-1.3zm36.4 70.9c-10.1-51.6-3.3-90 11.3-99.4 16.8-10.8 56.2 2.3 98.8 38.4 3.2 2.7 6.3 5.6 9.4 8.6-15.7 16.6-30 33.6-42.7 50.8-22.5 2.2-45.3 5.8-67.8 10.5-1.9-9.3-2.1-6.3-2.4-8.9h-6.6zm163 23c-17.6 10.2-56.7-3.4-97.2-39.3-3.5-3.1-7-6.3-10.3-9.5 15.5-16.6 30.1-34.3 43.7-52.9 22.7-2 44.9-5.5 66.8-10.6.8 4.1 1.6 8.1 2.4 12.1 10 53.1 1.6 89.3-14.5 99.6-.3.2-.6.3-.9.5zM256 364.2c-10.5-11.5-20.4-23.6-29.6-36.1 9.8.5 19.7.7 29.6.7 10.1 0 20-.2 29.6-.7-9.2 12.5-19.1 24.5-29.6 36.1zm112.3-38.3c-11 1.5-22.5 2.5-34.1 3.2-8.8-12.8-17.3-24.6-25.3-35.4 7.5-11 15.4-23.1 23.8-36.1 5 8.5 9.7 17.2 14.2 26.1 4.6 8.9 8.9 17.8 12.9 26.9l8.5 15.3zm29.1 62.5c-1.8-5.6-3.8-11.4-6-17.4 1.5.3 3 .7 4.5 1.1l.1-.1c-10.1 51.6-3.3 90 11.3 99.4h0c.1 0 .1.1.2.1 0-.1-.1-.2-.2-.4-.1-.1-.1-.2-.2-.3 0 0 0-.1-.1-.1-12.5-7.6-9.6-46.6.4-82.3zM360 255.6c0 15.3-1.2 30.1-3.4 44.3-21.1 5-43.3 8.4-66.2 10.1-13.1 18.5-27.1 36-42 52.6-4-3.8-7.9-7.7-11.6-11.7-37.2-39.8-60.5-82.5-60.5-95.3 0-31.4 40.8-62.8 96.3-81.2 4-1.3 8.1-2.6 12.3-3.7.7.2 1.5.5 2.2.7 21.2 6.4 43.9 9.6 72.2 9.6h.7c0 25.3 0 50.3 0 74.6z"/></symbol>
  <symbol id="icon-facebook" viewBox="0 0 512 512"><path fill="currentColor" d="M512 256C512 114.6 397.4 0 256 0S0 114.6 0 256c0 120 82.7 220.8 194.2 248.5V334.2h-52.8V256h52.8v-33.7c0-87.1 39.4-127.5 125-127.5 16.2 0 44.2 3.2 55.7 6.4V172c-6-.6-16.5-1-29.6-1-42 0-58.2 15.9-58.2 57.2V256h83.6l-14.4 78.2H287v175.9C413.8 494.8 512 386.9 512 256z"/></symbol>
</svg>
